<svg width="34" height="25" viewBox="0 0 34 25" fill="none" xmlns="http://www.w3.org/2000/svg">
<path fill-rule="evenodd" clip-rule="evenodd" d="M26.9247 18.17C30.8946 18.1286 34.0391 14.7346 33.9998 10.5543C33.9605 6.53953 30.9732 3.31115 27.2784 3.06282L27.5929 1.5314C27.5929 -7.56871e-06 26.1385 0 26.1385 0H2.43676C2.43676 0 0.982422 -7.56871e-06 0.982422 1.5314L4.55931 18.17C5.26682 21.9364 7.11422 24.2128 10.298 24.2128H18.1986C23.4657 24.2542 24.1732 17.6319 24.1732 17.6319C25.0379 17.963 25.942 18.17 26.9247 18.17ZM24.8021 14.5691L26.5709 6.08424C27.7894 6.00146 30.8946 6.82926 31.1304 10.5543C31.1697 13.0791 29.283 15.1071 26.8853 15.1485C26.1385 15.1485 25.431 14.9416 24.8021 14.5691ZM4.51656 2.77137H23.5317C23.9244 2.77137 24.2176 3.14224 24.1369 3.53679L21.1436 18.1685C20.7827 19.9322 19.2676 21.1949 17.5123 21.1949H10.8995C9.17789 21.1949 7.6824 19.9791 7.28779 18.2587L3.9146 3.55181C3.82319 3.15324 4.11773 2.77137 4.51656 2.77137Z" fill="#F1C62C"/>
</svg>
