<svg width="34" height="25" viewBox="0 0 34 25" fill="none" xmlns="http://www.w3.org/2000/svg">
<path fill-rule="evenodd" clip-rule="evenodd" d="M26.4037 18.17C30.3736 18.1286 33.5181 14.7346 33.4788 10.5543C33.4395 6.53953 30.4522 3.31115 26.7574 3.06282L27.0719 1.5314C27.0719 -7.59837e-06 25.6175 0 25.6175 0H1.91576C1.91576 0 0.461426 -7.59837e-06 0.461426 1.5314L4.03831 18.17C4.74583 21.9364 6.59322 24.2128 9.77704 24.2128H17.6776C22.9447 24.2542 23.6522 17.6319 23.6522 17.6319C24.5169 17.963 25.421 18.17 26.4037 18.17ZM24.2811 14.5691L26.0499 6.08424C27.2684 6.00146 30.3736 6.82926 30.6094 10.5543C30.6487 13.0791 28.762 15.1071 26.3643 15.1485C25.6175 15.1485 24.91 14.9416 24.2811 14.5691ZM23.0106 2.77137H3.99551C3.59668 2.77137 3.30214 3.15324 3.39355 3.55181L5.15107 11.2145H22.0452L23.6158 3.53679C23.6966 3.14224 23.4033 2.77137 23.0106 2.77137Z" fill="#F1C62C"/>
</svg>
