<svg width="34" height="25" viewBox="0 0 34 25" fill="none" xmlns="http://www.w3.org/2000/svg">
<path fill-rule="evenodd" clip-rule="evenodd" d="M33.5381 10.5543C33.5774 14.7346 30.4329 18.1286 26.463 18.17C25.4803 18.17 24.5763 17.963 23.7115 17.6319C23.7115 17.6319 23.004 24.2542 17.737 24.2128H9.83637C6.65255 24.2128 4.80515 21.9364 4.09764 18.17L0.520752 1.5314C0.520752 -7.59837e-06 1.97509 0 1.97509 0H25.6769C25.6769 0 27.1312 -7.59837e-06 27.1312 1.5314L26.8167 3.06282C30.5115 3.31115 33.4988 6.53953 33.5381 10.5543ZM26.1092 6.08424L24.3404 14.5691C24.9693 14.9416 25.6769 15.1485 26.4237 15.1485C28.8214 15.1071 30.7081 13.0791 30.6688 10.5543C30.4329 6.82926 27.3277 6.00146 26.1092 6.08424Z" fill="#F1C62C"/>
</svg>
