<svg fill="none" width="22" height="14" viewBox="0 0 22 14"  xmlns="http://www.w3.org/2000/svg">
<path fill="white" d="M11 11L11.512 10.562C11.854 10.2707 12.225 9.896 12.625 9.438C13.025 8.97933 13.396 8.47067 13.738 7.912C14.0793 7.354 14.25 6.8 14.25 6.25C14.25 5.35 13.9333 4.58333 13.3 3.95C12.6667 3.31667 11.9 3 11 3C10.1 3 9.33333 3.31667 8.7 3.95C8.06667 4.58333 7.75 5.35 7.75 6.25C7.75 6.8 7.92067 7.354 8.262 7.912C8.604 8.47067 8.975 8.97933 9.375 9.438C9.775 9.896 10.146 10.2707 10.488 10.562L11 11ZM11 7C10.7167 7 10.4793 6.904 10.288 6.712C10.096 6.52067 10 6.28333 10 6C10 5.71667 10.096 5.479 10.288 5.287C10.4793 5.09567 10.7167 5 11 5C11.2833 5 11.521 5.09567 11.713 5.287C11.9043 5.479 12 5.71667 12 6C12 6.28333 11.9043 6.52067 11.713 6.712C11.521 6.904 11.2833 7 11 7ZM7 14C5.05 14 3.396 13.3207 2.038 11.962C0.679333 10.604 0 8.95 0 7C0 5.05 0.679333 3.39567 2.038 2.037C3.396 0.679 5.05 0 7 0H15C16.95 0 18.604 0.679 19.962 2.037C21.3207 3.39567 22 5.05 22 7C22 8.95 21.3207 10.604 19.962 11.962C18.604 13.3207 16.95 14 15 14H7ZM7 12H15C16.3833 12 17.5627 11.5123 18.538 10.537C19.5127 9.56233 20 8.38333 20 7C20 5.61667 19.5127 4.43733 18.538 3.462C17.5627 2.48733 16.3833 2 15 2H7C5.61667 2 4.43767 2.48733 3.463 3.462C2.48767 4.43733 2 5.61667 2 7C2 8.38333 2.48767 9.56233 3.463 10.537C4.43767 11.5123 5.61667 12 7 12Z"/>
</svg>