<svg width="64" height="64" viewBox="0 0 64 64" fill="none" xmlns="http://www.w3.org/2000/svg">
<path d="M47.0832 12.5698H16.9136V51.4264H47.0832V12.5698Z" fill="#428852"/>
<path d="M47.9358 12.5698H16.0596V14.3064H47.9358V12.5698Z" fill="#428852" stroke="#428852" stroke-width="1.28" stroke-linejoin="round"/>
<path d="M31.9999 41.7961C37.4102 41.7961 41.7961 37.4102 41.7961 31.9999C41.7961 26.5896 37.4102 22.2036 31.9999 22.2036C26.5896 22.2036 22.2036 26.5896 22.2036 31.9999C22.2036 37.4102 26.5896 41.7961 31.9999 41.7961Z" fill="#F7F2E1"/>
<path d="M33.9238 28.417C32.6715 26.7938 30.3413 26.4926 28.7191 27.7441C27.0968 28.9957 26.7969 31.3261 28.0492 32.9493L30.0742 35.5741C31.3265 37.1973 33.6567 37.4985 35.2789 36.247C36.9012 34.9954 37.2011 32.665 35.9488 31.0418L33.9238 28.417Z" fill="#428852"/>
<path d="M28.9665 26.7349C28.2923 28.6378 30.1185 31.2661 32.2518 32.3242C34.3041 33.3183 35.7419 36.1941 34.9526 37.4442" stroke="#F7F2E1" stroke-width="1.28" stroke-linecap="round" stroke-linejoin="round"/>
</svg>
