<svg width="64" height="64" viewBox="0 0 64 64" fill="none" xmlns="http://www.w3.org/2000/svg">
<path d="M51.6693 48.6825H49.1946C49.2318 48.4857 49.2461 48.2852 49.2373 48.0851C50.4319 42.7091 50.2613 21.9305 49.0239 16.9385C49.0166 16.7229 48.988 16.5085 48.9386 16.2985H51.6693C52.0427 16.2985 52.4008 16.1501 52.6649 15.8861C52.9289 15.622 53.0773 15.2639 53.0773 14.8905C53.0773 14.5171 52.9289 14.1589 52.6649 13.8949C52.4008 13.6308 52.0427 13.4825 51.6693 13.4825C45.4826 12.7145 20.3519 12.7571 13.9946 13.4825C13.6212 13.4825 13.2631 13.6308 12.999 13.8949C12.735 14.1589 12.5866 14.5171 12.5866 14.8905C12.5866 15.2639 12.735 15.622 12.999 15.8861C13.2631 16.1501 13.6212 16.2985 13.9946 16.2985H16.4693C16.4339 16.5099 16.4196 16.7243 16.4266 16.9385C15.4026 21.5038 15.4026 42.2398 16.6399 48.0851C16.6399 48.2985 16.6826 48.5118 16.6826 48.6825H13.9946C13.1839 48.6825 12.5439 49.7918 12.5439 50.5598C12.5439 51.3278 13.1839 52.4371 13.9946 52.4371H51.6693C52.4373 52.4371 53.0773 51.3278 53.0773 50.5598C53.0773 49.7918 52.4373 48.6825 51.6693 48.6825Z" fill="#428852"/>
<path d="M41.2583 42.3678H25.3437C25.0039 42.362 24.6751 42.2468 24.4061 42.0393C24.137 41.8317 23.9421 41.5429 23.8503 41.2158C22.3143 35.5411 22.3143 29.5678 23.893 23.2531C23.9784 22.9224 24.1716 22.6295 24.442 22.4209C24.7125 22.2123 25.0448 22.0997 25.3863 22.1011H41.301C41.658 22.114 42.0001 22.2476 42.2714 22.4801C42.5426 22.7126 42.727 23.0302 42.7943 23.3811C43.9537 29.2422 43.9392 35.275 42.7517 41.1304C42.6908 41.4807 42.5069 41.7977 42.2332 42.0245C41.9595 42.2513 41.6138 42.373 41.2583 42.3678Z" fill="#F7F2E1"/>
<path d="M23.125 37.7173C23.301 38.8962 23.5431 40.0643 23.8503 41.216C23.9421 41.5431 24.137 41.8319 24.4061 42.0395C24.6751 42.247 25.0039 42.3622 25.3437 42.368H41.2583C41.6138 42.3732 41.9595 42.2515 42.2332 42.0247C42.5069 41.7979 42.6908 41.4809 42.7517 41.1306C42.965 39.9786 43.1357 38.8266 43.2637 37.7173H23.125Z" fill="#428852"/>
<path d="M37.4526 30.8508C38.209 29.1756 37.4642 27.2045 35.789 26.4481C34.1138 25.6918 32.1427 26.4366 31.3863 28.1118L30.1731 30.7988C29.4167 32.474 30.1616 34.4451 31.8367 35.2015C33.5119 35.9579 35.483 35.213 36.2394 33.5379L37.4526 30.8508Z" fill="#428852"/>
<path d="M36.7359 26.1118C34.9439 26.3678 33.6212 29.0131 33.6212 31.1891C33.6212 33.3651 31.9999 35.6692 30.6772 35.5412" stroke="#F7F2E1" stroke-width="0.853333" stroke-linecap="round" stroke-linejoin="round"/>
<path d="M21.5039 30.8052H23.7226" stroke="#428852" stroke-width="1.28" stroke-linecap="round" stroke-linejoin="round"/>
<path d="M21.5039 32.896H23.7226" stroke="#428852" stroke-width="1.28" stroke-linecap="round" stroke-linejoin="round"/>
<path d="M42.5386 30.8052H44.7572" stroke="#428852" stroke-width="1.28" stroke-linecap="round" stroke-linejoin="round"/>
<path d="M42.5386 32.896H44.7572" stroke="#428852" stroke-width="1.28" stroke-linecap="round" stroke-linejoin="round"/>
<path d="M34.2183 20.9917V23.253" stroke="#428852" stroke-width="1.28" stroke-linecap="round" stroke-linejoin="round"/>
<path d="M32.1274 20.9917V23.253" stroke="#428852" stroke-width="1.28" stroke-linecap="round" stroke-linejoin="round"/>
<path d="M34.2183 41.2583V43.477" stroke="#F7F2E1" stroke-width="1.28" stroke-linecap="round" stroke-linejoin="round"/>
<path d="M32.1274 41.2583V43.477" stroke="#F7F2E1" stroke-width="1.28" stroke-linecap="round" stroke-linejoin="round"/>
</svg>
