<svg width="64" height="64" viewBox="0 0 64 64" fill="none" xmlns="http://www.w3.org/2000/svg">
<path d="M36.3945 31.7012H29.9092V35.0718H36.3945V31.7012Z" fill="#1A1B1C" stroke="#1A1B1C" stroke-width="1.28853" stroke-linecap="round" stroke-linejoin="round"/>
<path d="M36.3945 31.7012H56.6612V33.4932C56.6612 33.9119 56.4949 34.3134 56.1988 34.6095C55.9028 34.9055 55.5012 35.0718 55.0825 35.0718H36.3945V31.7012Z" fill="#428852" stroke="#428852" stroke-width="1.28853" stroke-linecap="round" stroke-linejoin="round"/>
<path d="M10.5811 31.7012H31.1891V39.6372C31.1891 40.5198 30.8384 41.3663 30.2143 41.9904C29.5902 42.6145 28.7437 42.9652 27.8611 42.9652H13.9091C13.0264 42.9652 12.1799 42.6145 11.5558 41.9904C10.9317 41.3663 10.5811 40.5198 10.5811 39.6372V31.7012Z" fill="#428852"/>
<path d="M15.3174 30.8486H26.9227V33.2806C26.9227 33.6427 26.7789 33.99 26.5228 34.2461C26.2668 34.5021 25.9195 34.646 25.5574 34.646H16.6827C16.3206 34.646 15.9733 34.5021 15.7173 34.2461C15.4612 33.99 15.3174 33.6427 15.3174 33.2806V30.8486Z" fill="#428852"/>
</svg>
