<svg width="64" height="64" viewBox="0 0 64 64" fill="none" xmlns="http://www.w3.org/2000/svg">
<path d="M48.0001 39.7231H39.3815C39.2041 39.7232 39.0286 39.6876 38.8652 39.6185C38.7019 39.5494 38.5542 39.4481 38.4308 39.3207C38.3074 39.1934 38.2109 39.0425 38.147 38.877C38.0831 38.7116 38.0531 38.535 38.0588 38.3578V29.0138C38.0531 28.8365 38.0831 28.6599 38.147 28.4945C38.2109 28.3291 38.3074 28.1782 38.4308 28.0508C38.5542 27.9234 38.7019 27.8222 38.8652 27.753C39.0286 27.6839 39.2041 27.6483 39.3815 27.6484H48.0001C51.5415 27.6484 54.4428 30.1658 54.4428 33.7071C54.4428 37.2484 51.5415 39.7231 48.0001 39.7231ZM40.7468 36.9924H48.0001C50.0481 36.9924 51.7121 35.7551 51.7121 33.7071C51.7121 31.6591 50.0481 30.3791 48.0001 30.3791H40.7468V36.9924Z" fill="#428852"/>
<path d="M35.6695 51.4564H26.4109C20.2242 51.4564 15.6162 46.4218 15.6162 40.2778V27.6484H46.4642V40.2778C46.4642 46.4218 41.8562 51.4564 35.6695 51.4564Z" fill="#428852"/>
<path d="M46.4644 27.6484H48.3844V30.3791H46.635L46.4644 27.6484Z" fill="#1A1B1C"/>
<path d="M45.5684 36.9922H48.0004V39.7229H45.739L45.5684 36.9922Z" fill="#1A1B1C"/>
<path d="M31.5739 7.14171L31.4459 15.5044L29.1846 12.6457H33.4939C33.7665 12.6456 34.0363 12.7 34.2876 12.8056C34.5389 12.9112 34.7666 13.0658 34.9574 13.2606C35.1481 13.4553 35.2981 13.6861 35.3984 13.9395C35.4988 14.193 35.5476 14.4639 35.5419 14.7364C35.541 15.0116 35.4978 15.285 35.4139 15.547L32.1286 23.1844C32.0247 23.4316 31.8279 23.6282 31.5806 23.732C31.3333 23.8357 31.0551 23.8382 30.8059 23.739C30.6083 23.653 30.4413 23.5091 30.3271 23.3263C30.2128 23.1435 30.1566 22.9304 30.1659 22.715L30.8486 14.395L33.1099 17.2964H28.7153C28.1834 17.2964 27.6733 17.0851 27.2973 16.709C26.9212 16.333 26.7099 15.8229 26.7099 15.291C26.7007 14.9973 26.7591 14.7053 26.8806 14.4377L30.5926 6.92837C30.6202 6.86643 30.6599 6.81059 30.7093 6.7641C30.7587 6.71762 30.8169 6.68142 30.8804 6.6576C30.9439 6.63378 31.0115 6.62282 31.0793 6.62536C31.1471 6.62789 31.2137 6.64388 31.2753 6.67238C31.365 6.7135 31.4409 6.77967 31.4939 6.86294C31.5469 6.94621 31.5747 7.04301 31.5739 7.14171Z" fill="#428852"/>
</svg>
