<svg width="64" height="64" viewBox="0 0 64 64" fill="none" xmlns="http://www.w3.org/2000/svg">
<path fill-rule="evenodd" clip-rule="evenodd" d="M29.9244 33.1534C31.7695 35.306 33.1535 37.4584 33.1535 40.3799C33.1535 45.7614 28.8485 50.2204 23.4669 50.2204C18.0853 50.2204 13.7803 45.7615 13.7803 40.3799C13.7803 37.4584 15.4717 35.1524 17.0093 33.1534L20.0844 29.3094L23.4669 25.1578L26.8493 29.3094L29.9244 33.1534Z" fill="#428852"/>
<path fill-rule="evenodd" clip-rule="evenodd" d="M45.9153 21.3143C47.1453 22.6982 48.0679 24.0819 48.0679 26.0807C48.0679 29.4632 45.3003 32.3847 41.7639 32.3847C38.2274 32.3847 35.46 29.4632 35.46 26.0807C35.46 24.0817 36.5364 22.5442 37.6125 21.3143L39.6115 18.7003L41.7641 16.0863L43.9167 18.7003L45.9153 21.3143Z" fill="#428852"/>
</svg>
