<?xml version="1.0" encoding="utf-8"?>
<!-- Generator: Adobe Illustrator 25.0.1, SVG Export Plug-In . SVG Version: 6.00 Build 0)  -->
<svg version="1.1" id="Capa_1" xmlns="http://www.w3.org/2000/svg" xmlns:xlink="http://www.w3.org/1999/xlink" x="0px" y="0px"
	 viewBox="0 0 1249.49 222" style="enable-background:new 0 0 1249.49 222;" xml:space="preserve">
<style type="text/css">
	.st0{fill:#1D1D1B;}
	.st1{fill:#0033CC;}
</style>
<path d="M0,9h42v67.5h1.5c5.2-6,11-10.75,17.4-14.25C67.3,58.75,75,57,84,57c8.6,0,16.5,1.45,23.7,4.35
	c7.2,2.9,13.35,7.15,18.45,12.75c5.1,5.6,9.1,12.35,12,20.25c2.9,7.9,4.35,16.95,4.35,27.15V219h-42v-91.5
	c0-10.6-2.5-18.75-7.5-24.45c-5-5.7-12-8.55-21-8.55s-16.25,3.05-21.75,9.15c-5.5,6.1-8.25,14.05-8.25,23.85V219H0V9z"/>
<path class="st1" d="M346.5,105c-6.8,0-12.5-2.3-17.1-6.9c-4.6-4.6-6.9-10.3-6.9-17.1c0-6.8,2.3-12.5,6.9-17.1
	c4.6-4.6,10.3-6.9,17.1-6.9c6.8,0,12.5,2.3,17.1,6.9c4.6,4.6,6.9,10.3,6.9,17.1c0,6.8-2.3,12.5-6.9,17.1
	C358.99,102.7,353.29,105,346.5,105z M346.5,220.5c-6.8,0-12.5-2.3-17.1-6.9c-4.6-4.6-6.9-10.3-6.9-17.1c0-6.8,2.3-12.5,6.9-17.1
	c4.6-4.6,10.3-6.9,17.1-6.9c6.8,0,12.5,2.3,17.1,6.9c4.6,4.6,6.9,10.3,6.9,17.1c0,6.8-2.3,12.5-6.9,17.1
	C358.99,218.2,353.29,220.5,346.5,220.5z"/>
<path d="M461.99,222c-12,0-22.8-1.85-32.4-5.55c-9.6-3.7-17.8-9.05-24.6-16.05c-6.8-7-12-15.6-15.6-25.8
	c-3.6-10.2-5.4-21.9-5.4-35.1c0-13.2,1.8-24.9,5.4-35.1c3.6-10.2,8.8-18.8,15.6-25.8c6.8-7,15-12.35,24.6-16.05
	c9.6-3.7,20.4-5.55,32.4-5.55c11.2,0,21,1.55,29.4,4.65c8.4,3.1,15.55,7.3,21.45,12.6c5.9,5.3,10.7,11.4,14.4,18.3
	c3.7,6.9,6.45,14.05,8.25,21.45h-42c-3-6-6.9-10.75-11.7-14.25c-4.8-3.5-11.4-5.25-19.8-5.25c-10.6,0-19.25,3.75-25.95,11.25
	c-6.7,7.5-10.05,18.75-10.05,33.75s3.35,26.25,10.05,33.75c6.7,7.5,15.35,11.25,25.95,11.25c8.4,0,15-1.75,19.8-5.25
	c4.8-3.5,8.7-8.25,11.7-14.25h42c-1.8,7.6-4.55,14.8-8.25,21.6c-3.7,6.8-8.5,12.85-14.4,18.15c-5.9,5.3-13.05,9.5-21.45,12.6
	C482.99,220.45,473.19,222,461.99,222z"/>
<path d="M625.49,222c-12,0-22.8-1.85-32.4-5.55c-9.6-3.7-17.8-9.05-24.6-16.05c-6.8-7-12-15.6-15.6-25.8
	c-3.6-10.2-5.4-21.9-5.4-35.1c0-13.2,1.8-24.9,5.4-35.1c3.6-10.2,8.8-18.8,15.6-25.8c6.8-7,15-12.35,24.6-16.05
	c9.6-3.7,20.4-5.55,32.4-5.55s22.8,1.85,32.4,5.55c9.6,3.7,17.8,9.05,24.6,16.05c6.8,7,12,15.6,15.6,25.8
	c3.6,10.2,5.4,21.9,5.4,35.1c0,13.2-1.8,24.9-5.4,35.1c-3.6,10.2-8.8,18.8-15.6,25.8c-6.8,7-15,12.35-24.6,16.05
	C648.29,220.15,637.49,222,625.49,222z M625.49,184.5c4.8,0,9.4-0.85,13.8-2.55c4.4-1.7,8.25-4.4,11.55-8.1
	c3.3-3.7,5.9-8.4,7.8-14.1c1.9-5.7,2.85-12.45,2.85-20.25c0-7.8-0.95-14.55-2.85-20.25c-1.9-5.7-4.5-10.4-7.8-14.1
	c-3.3-3.7-7.15-6.4-11.55-8.1c-4.4-1.7-9-2.55-13.8-2.55s-9.4,0.85-13.8,2.55c-4.4,1.7-8.25,4.4-11.55,8.1
	c-3.3,3.7-5.9,8.4-7.8,14.1c-1.9,5.7-2.85,12.45-2.85,20.25c0,7.8,0.95,14.55,2.85,20.25c1.9,5.7,4.5,10.4,7.8,14.1
	c3.3,3.7,7.15,6.4,11.55,8.1C616.09,183.65,620.69,184.5,625.49,184.5z"/>
<path d="M737.99,99h-25.5V60h25.5V46.5c0-15,4.1-26.5,12.3-34.5c8.2-8,20.6-12,37.2-12h30v37.5h-22.5c-4.6,0-8.25,1.35-10.95,4.05
	c-2.7,2.7-4.05,6.35-4.05,10.95V60h58.5V46.5c0-15,4.1-26.5,12.3-34.5c8.2-8,20.6-12,37.2-12h30v37.5h-22.5
	c-4.6,0-8.25,1.35-10.95,4.05c-2.7,2.7-4.05,6.35-4.05,10.95V60h37.5v39h-37.5v120h-42V99h-58.5v120h-42V99z"/>
<path d="M1004.99,222c-12,0-22.8-1.85-32.4-5.55c-9.6-3.7-17.8-9.05-24.6-16.05c-6.8-7-12-15.6-15.6-25.8
	c-3.6-10.2-5.4-21.9-5.4-35.1c0-13.2,1.8-24.9,5.4-35.1c3.6-10.2,8.8-18.8,15.6-25.8c6.8-7,15-12.35,24.6-16.05
	c9.6-3.7,20.4-5.55,32.4-5.55c11.6,0,22.1,1.95,31.5,5.85c9.4,3.9,17.45,9.4,24.15,16.5c6.7,7.1,11.85,15.5,15.45,25.2
	c3.6,9.7,5.4,20.35,5.4,31.95c0,2.2-0.1,4.3-0.3,6.3c-0.2,2-0.4,3.8-0.6,5.4c-0.2,1.8-0.4,3.4-0.6,4.8h-109.5
	c1.6,9,5.1,16.5,10.5,22.5s13.4,9,24,9c8.2,0,14.25-1.35,18.15-4.05c3.9-2.7,7.35-6.35,10.35-10.95h45
	c-1.8,6.8-4.55,13.35-8.25,19.65c-3.7,6.3-8.5,11.9-14.4,16.8c-5.9,4.9-13.05,8.8-21.45,11.7
	C1025.99,220.55,1016.19,222,1004.99,222z M1037.99,121.5c-0.8-3.4-2.05-6.7-3.75-9.9c-1.7-3.2-3.9-6.1-6.6-8.7
	c-2.7-2.6-5.95-4.65-9.75-6.15c-3.8-1.5-8.1-2.25-12.9-2.25c-9.8,0-17.45,2.6-22.95,7.8c-5.5,5.2-9.35,11.6-11.55,19.2H1037.99z"/>
<path d="M1172.99,222c-12,0-22.8-1.85-32.4-5.55c-9.6-3.7-17.8-9.05-24.6-16.05c-6.8-7-12-15.6-15.6-25.8
	c-3.6-10.2-5.4-21.9-5.4-35.1c0-13.2,1.8-24.9,5.4-35.1c3.6-10.2,8.8-18.8,15.6-25.8c6.8-7,15-12.35,24.6-16.05
	c9.6-3.7,20.4-5.55,32.4-5.55c11.6,0,22.1,1.95,31.5,5.85c9.4,3.9,17.45,9.4,24.15,16.5c6.7,7.1,11.85,15.5,15.45,25.2
	c3.6,9.7,5.4,20.35,5.4,31.95c0,2.2-0.1,4.3-0.3,6.3c-0.2,2-0.4,3.8-0.6,5.4c-0.2,1.8-0.4,3.4-0.6,4.8h-109.5
	c1.6,9,5.1,16.5,10.5,22.5s13.4,9,24,9c8.2,0,14.25-1.35,18.15-4.05c3.9-2.7,7.35-6.35,10.35-10.95h45
	c-1.8,6.8-4.55,13.35-8.25,19.65c-3.7,6.3-8.5,11.9-14.4,16.8c-5.9,4.9-13.05,8.8-21.45,11.7
	C1193.99,220.55,1184.18,222,1172.99,222z M1205.99,121.5c-0.8-3.4-2.05-6.7-3.75-9.9c-1.7-3.2-3.9-6.1-6.6-8.7
	c-2.7-2.6-5.95-4.65-9.75-6.15c-3.8-1.5-8.1-2.25-12.9-2.25c-9.8,0-17.45,2.6-22.95,7.8c-5.5,5.2-9.35,11.6-11.55,19.2H1205.99z"/>
<polygon class="st1" points="256.5,138 321,60 271.5,60 213,130.5 206.67,138.12 276,219 325.5,219 "/>
<polygon points="203.63,140.72 201.44,138.16 203.59,135.57 209.92,127.95 213,124.24 213,9 171,9 171,96.5 171,181.11 171,219 
	213,219 213,151.65 "/>
</svg>
