<?xml version="1.0" encoding="utf-8"?>
<!-- Generator: Adobe Illustrator 25.0.1, SVG Export Plug-In . SVG Version: 6.00 Build 0)  -->
<svg version="1.1" id="Capa_1" xmlns="http://www.w3.org/2000/svg" xmlns:xlink="http://www.w3.org/1999/xlink" x="0px" y="0px"
	 viewBox="0 0 1935.1 350" style="enable-background:new 0 0 1935.1 350;" xml:space="preserve">
<style type="text/css">
	.st0{fill:#0033CC;}
</style>
<g>
	<path class="st0" d="M0,20.8h64.9v104.3h2.3c8-9.3,17-16.6,26.9-22c9.9-5.4,21.8-8.1,35.7-8.1c13.3,0,25.5,2.2,36.6,6.7
		s20.6,11.1,28.5,19.7s14.1,19.1,18.5,31.3c4.5,12.2,6.7,26.2,6.7,41.9v150.7h-64.9V204c0-16.4-3.9-29-11.6-37.8
		c-7.7-8.8-18.5-13.2-32.4-13.2s-25.1,4.7-33.6,14.1S64.9,188.8,64.9,204v141.4H0V20.8z"/>
	<path class="st0" d="M286.4,74.2c-10.5,0-19.3-3.6-26.4-10.7c-7.1-7.1-10.7-15.9-10.7-26.4s3.5-19.3,10.7-26.4
		C267.1,3.5,275.9,0,286.4,0c10.5,0,19.3,3.6,26.4,10.7c7.1,7.1,10.7,15.9,10.7,26.4c0,10.5-3.6,19.3-10.7,26.4
		C305.7,70.6,296.9,74.2,286.4,74.2z M254,99.6h64.9v245.7H254V99.6z"/>
	<path class="st0" d="M352.7,99.6h55.6l6.9,27.8h2.3c7.1-10.5,15.3-18.5,24.6-24.1c9.3-5.6,20.4-8.3,33.4-8.3
		c10.5,0,19.5,1.4,27.1,4.2c7.6,2.8,14.1,6.2,19.5,10.2c5.4,4,9.7,8.3,13,13s5.8,8.7,7.7,12.1h2.3c1.9-3.4,4.6-7.4,8.3-12.1
		c3.7-4.6,8.7-9,14.8-13c6.2-4,13.4-7.4,21.8-10.2c8.3-2.8,18.1-4.2,29.2-4.2c13.3,0,25.5,2.2,36.6,6.7
		c11.1,4.5,20.6,10.9,28.5,19.2c7.9,8.3,14.1,18.5,18.5,30.6c4.5,12.1,6.7,25.7,6.7,40.8v153h-64.9V201.6c0-8.6-1.1-16.1-3.2-22.2
		c-2.2-6.2-5.1-11.2-8.8-15.1c-3.7-3.9-8.1-6.7-13.2-8.6c-5.1-1.9-10.6-2.8-16.5-2.8c-10.5,0-19.7,4-27.6,12.1
		c-7.9,8-11.8,20.2-11.8,36.6v143.7h-64.9V201.6c0-8.6-1.1-16.1-3.2-22.2c-2.2-6.2-5.1-11.2-8.8-15.1c-3.7-3.9-8.1-6.7-13.2-8.6
		c-5.1-1.9-10.6-2.8-16.5-2.8c-10.5,0-19.7,4.3-27.6,13c-7.9,8.7-11.8,20.6-11.8,35.7v143.7h-64.9L352.7,99.6L352.7,99.6z"/>
	<path class="st0" d="M777.8,74.2c-10.5,0-19.3-3.6-26.4-10.7c-7.1-7.1-10.7-15.9-10.7-26.4s3.5-19.3,10.7-26.4
		C758.4,3.5,767.2,0,777.8,0c10.5,0,19.3,3.6,26.4,10.7c7.1,7.1,10.7,15.9,10.7,26.4c0,10.5-3.6,19.3-10.7,26.4
		C797.1,70.6,788.3,74.2,777.8,74.2z M745.3,99.6h64.9v245.7h-64.9V99.6z"/>
	<path class="st0" d="M845.9,20.8h64.9v187.8l90.4-108.9h76.5L978,220.2l106.6,125.2h-76.5l-97.3-113.6v113.6h-64.9V20.8z"/>
	<path class="st0" d="M1189.7,350c-18.5,0-35.2-2.9-50.1-8.6c-14.8-5.7-27.5-14-38-24.8c-10.5-10.8-18.5-24.1-24.1-39.9
		c-5.6-15.8-8.3-33.8-8.3-54.2s2.8-38.5,8.3-54.2c5.6-15.8,13.6-29.1,24.1-39.9c10.5-10.8,23.2-19.1,38-24.8
		c14.8-5.7,31.5-8.6,50.1-8.6s35.2,2.9,50.1,8.6c14.8,5.7,27.5,14,38,24.8c10.5,10.8,18.5,24.1,24.1,39.9
		c5.6,15.8,8.3,33.8,8.3,54.2s-2.8,38.5-8.3,54.2c-5.6,15.8-13.6,29-24.1,39.9s-23.2,19.1-38,24.8
		C1224.9,347.1,1208.2,350,1189.7,350z M1189.7,292c7.4,0,14.5-1.3,21.3-3.9c6.8-2.6,12.8-6.8,17.8-12.5c5.1-5.7,9.1-13,12.1-21.8
		c2.9-8.8,4.4-19.2,4.4-31.3c0-12-1.5-22.5-4.4-31.3c-2.9-8.8-6.9-16.1-12.1-21.8c-5.1-5.7-11.1-9.9-17.8-12.5
		c-6.8-2.6-13.9-3.9-21.3-3.9c-7.4,0-14.5,1.3-21.3,3.9c-6.8,2.6-12.8,6.8-17.8,12.5s-9.1,13-12.1,21.8c-2.9,8.8-4.4,19.2-4.4,31.3
		c0,12,1.5,22.5,4.4,31.3c2.9,8.8,6.9,16.1,12.1,21.8c5.1,5.7,11.1,9.9,17.8,12.5C1175.1,290.7,1182.2,292,1189.7,292z"/>
	<path class="st0" d="M1443.3,350c-15.8,0-30.1-2.7-43.1-8.1s-24.2-13.5-33.6-24.3c-9.4-10.8-16.8-24.1-22-39.9
		c-5.3-15.8-7.9-34.1-7.9-55.2c0-20.7,2.6-39,7.9-54.9c5.2-15.9,12.6-29.3,22-40.1c9.4-10.8,20.6-18.9,33.6-24.3
		c13-5.4,27.3-8.1,43.1-8.1c9.3,0,17.5,1,24.8,3c7.3,2,13.7,4.6,19.2,7.6c5.6,3.1,10.2,6.4,13.9,10c3.7,3.6,6.8,6.7,9.3,9.5h2.3
		V20.8h64.9v324.5h-55.6l-6.9-27.8h-2.3c-3.4,4-7.3,8-11.8,11.8c-4.5,3.9-9.5,7.3-15.1,10.4c-5.6,3.1-11.9,5.6-19,7.4
		C1459.8,349.1,1452,350,1443.3,350z M1457.2,292c7.4,0,14.5-1.3,21.3-3.9c6.8-2.6,12.8-6.8,17.8-12.5c5.1-5.7,9.1-13,12.1-21.8
		c2.9-8.8,4.4-19.2,4.4-31.3c0-12-1.5-22.5-4.4-31.3c-2.9-8.8-6.9-16.1-12.1-21.8c-5.1-5.7-11.1-9.9-17.8-12.5
		c-6.8-2.6-13.9-3.9-21.3-3.9c-7.4,0-14.5,1.3-21.3,3.9c-6.8,2.6-12.8,6.8-17.8,12.5s-9.1,13-12.1,21.8c-2.9,8.8-4.4,19.2-4.4,31.3
		c0,12,1.5,22.5,4.4,31.3c2.9,8.8,6.9,16.1,12.1,21.8c5.1,5.7,11.1,9.9,17.8,12.5C1442.7,290.7,1449.8,292,1457.2,292z"/>
	<path class="st0" d="M1723.9,350c-18.5,0-35.2-2.9-50.1-8.6c-14.8-5.7-27.5-14-38-24.8c-10.5-10.8-18.5-24.1-24.1-39.9
		c-5.6-15.8-8.3-33.8-8.3-54.2s2.8-38.5,8.3-54.2c5.6-15.8,13.6-29.1,24.1-39.9c10.5-10.8,23.2-19.1,38-24.8
		c14.8-5.7,31.5-8.6,50.1-8.6c17.9,0,34.1,3,48.7,9c14.5,6,27,14.5,37.3,25.5c10.3,11,18.3,24,23.9,38.9c5.6,15,8.3,31.4,8.3,49.4
		c0,3.4-0.2,6.6-0.5,9.7c-0.3,3.1-0.6,5.9-0.9,8.3c-0.3,2.8-0.6,5.3-0.9,7.4h-169.2c2.5,13.9,7.9,25.5,16.2,34.8
		s20.7,13.9,37.1,13.9c12.7,0,22-2.1,28.1-6.3c6-4.2,11.4-9.8,16-16.9h69.5c-2.8,10.5-7,20.6-12.8,30.4c-5.7,9.7-13.1,18.4-22.2,26
		c-9.1,7.6-20.2,13.6-33.2,18.1C1756.3,347.7,1741.2,350,1723.9,350z M1774.9,194.7c-1.2-5.2-3.2-10.4-5.8-15.3
		c-2.6-4.9-6-9.4-10.2-13.4c-4.2-4-9.2-7.2-15.1-9.5s-12.5-3.5-19.9-3.5c-15.2,0-27,4-35.5,12.1c-8.5,8-14.4,17.9-17.8,29.7H1774.9z
		"/>
	<g>
		<path class="st0" d="M1890,298.2h15.2c1.8,0,3.4,0.3,4.9,0.8s2.7,1.3,3.8,2.3s1.9,2.2,2.5,3.6c0.6,1.4,0.9,3,0.9,4.8
			c0,1.9-0.3,3.5-0.9,4.8c-0.6,1.3-1.3,2.5-2.2,3.4s-1.8,1.6-2.8,2c-1,0.5-1.9,0.8-2.7,1l9.7,13.9h-7.3l-9.4-13.6h-5v13.6h-6.5
			L1890,298.2L1890,298.2z M1904.7,315.4c1.8,0,3.3-0.5,4.3-1.5s1.6-2.4,1.6-4.3s-0.5-3.3-1.6-4.3c-1.1-1-2.6-1.5-4.4-1.5h-8.1v11.5
			L1904.7,315.4L1904.7,315.4z"/>
	</g>
	<g>
		<path class="st0" d="M1902.5,350c-18,0-32.7-14.7-32.7-32.7s14.6-32.6,32.7-32.6c18,0,32.7,14.6,32.7,32.6
			C1935.1,335.3,1920.5,350,1902.5,350z M1902.5,289.3c-15.4,0-27.9,12.6-27.9,28s12.5,28,27.9,28c15.4,0,27.9-12.6,27.9-28
			C1930.4,301.9,1917.9,289.3,1902.5,289.3z"/>
	</g>
</g>
</svg>
